<?xml version="1.0" encoding="UTF-8" standalone="no"?>
<!-- Created with Inkscape (http://www.inkscape.org/) -->

<svg
   xmlns:dc="http://purl.org/dc/elements/1.1/"
   xmlns:cc="http://creativecommons.org/ns#"
   xmlns:rdf="http://www.w3.org/1999/02/22-rdf-syntax-ns#"
   xmlns:svg="http://www.w3.org/2000/svg"
   xmlns="http://www.w3.org/2000/svg"
   xmlns:sodipodi="http://sodipodi.sourceforge.net/DTD/sodipodi-0.dtd"
   xmlns:inkscape="http://www.inkscape.org/namespaces/inkscape"
   width="32"
   height="32"
   viewBox="0 0 32 32"
   id="svg2"
   version="1.1"
   inkscape:version="0.91 r13725"
   sodipodi:docname="leaf.svg">
  <defs
     id="defs4" />
  <sodipodi:namedview
     id="base"
     pagecolor="#ffffff"
     bordercolor="#666666"
     borderopacity="1.0"
     inkscape:pageopacity="0.0"
     inkscape:pageshadow="2"
     inkscape:zoom="7.9195959"
     inkscape:cx="41.832606"
     inkscape:cy="30.432376"
     inkscape:document-units="px"
     inkscape:current-layer="layer1"
     showgrid="false"
     inkscape:window-width="1280"
     inkscape:window-height="738"
     inkscape:window-x="-8"
     inkscape:window-y="-8"
     inkscape:window-maximized="1"
     showguides="false"
     units="px" />
  <metadata
     id="metadata7">
    <rdf:RDF>
      <cc:Work
         rdf:about="">
        <dc:format>image/svg+xml</dc:format>
        <dc:type
           rdf:resource="http://purl.org/dc/dcmitype/StillImage" />
        <dc:title></dc:title>
      </cc:Work>
    </rdf:RDF>
  </metadata>
  <g
     inkscape:label="Layer 1"
     inkscape:groupmode="layer"
     id="layer1"
     transform="translate(0,-1020.3622)">
    <path
       id="path4238"
       style="fill:#339406;fill-opacity:1;fill-rule:evenodd;stroke:#000000;stroke-width:0.18453775px;stroke-linecap:butt;stroke-linejoin:miter;stroke-opacity:1"
       d="m 31.355037,1025.8631 0,0.1938 c 0,0.065 0.04223,0.1483 0,0.1941 -0.04222,0.045 -0.136937,-0.045 -0.179169,0 -0.08958,0.098 0.08958,0.4848 0,0.5818 -0.238889,0.2587 -0.171921,-0.4114 -0.358334,0.194 -0.03777,0.1226 0.02897,0.2625 0,0.3878 -0.27775,1.2027 -0.147024,0.194 -0.179167,0.194 -0.05972,0 0.04223,0.1482 0,0.1939 -0.04223,0.045 -0.136939,-0.045 -0.17917,0 -0.04223,0.045 0.04223,0.1483 0,0.1941 -0.04223,0.045 -0.136936,-0.045 -0.179167,0 -0.04223,0.045 0.04223,0.1481 0,0.1938 -0.04223,0.045 -0.136938,-0.046 -0.179168,0 -0.370704,0.4014 0.566486,-0.016 -0.179167,0.388 -0.05341,0.028 -0.125751,-0.028 -0.179169,0 -0.07554,0.041 -0.103619,0.153 -0.179168,0.1938 -0.106835,0.059 -0.273874,-0.092 -0.358334,0 -0.04223,0.045 0.02672,0.1363 0,0.194 -0.03777,0.082 -0.119446,0.1293 -0.179169,0.194 -0.05972,0.065 -0.103619,0.1532 -0.179168,0.194 -0.05341,0.028 -0.119445,0 -0.179167,0 0,0.065 0.04223,0.1481 0,0.1939 -0.04223,0.045 -0.136938,-0.045 -0.179168,0 -0.04223,0.045 0.05341,0.1649 0,0.194 -0.106834,0.059 -0.251501,-0.058 -0.358336,0 -0.05341,0.028 0.04223,0.1482 0,0.1939 -0.04223,0.047 -0.136938,-0.045 -0.179168,0 -0.09443,0.102 -0.08474,0.2856 -0.179166,0.3879 -0.04223,0.045 -0.15246,-0.058 -0.17917,0 -0.05342,0.1156 0.08447,0.2966 0,0.3879 -0.08446,0.092 -0.2515,-0.058 -0.358336,0 -0.05341,0.028 0.04223,0.1482 0,0.1939 -0.04222,0.046 -0.136937,-0.045 -0.179166,0 -0.370706,0.4013 0.566486,-0.017 -0.179169,0.388 -0.05341,0.028 -0.136936,-0.045 -0.179167,0 -0.09443,0.102 -0.08473,0.2856 -0.179168,0.3878 -0.04223,0.045 -0.125749,-0.028 -0.179167,0 -0.07555,0.041 -0.10362,0.1531 -0.179169,0.194 -0.106835,0.058 -0.273876,-0.092 -0.358335,0 -0.04223,0.045 0.04223,0.1482 0,0.1939 -0.09443,0.102 -0.23889,0.1293 -0.358337,0.194 -0.05972,0 -0.136936,-0.045 -0.179167,0 -0.109759,0.1187 -0.152528,0.5075 -0.358335,0.5817 -0.161251,0.059 -0.376253,-0.058 -0.537504,0 -0.126692,0.045 -0.231646,0.1483 -0.358336,0.1941 -0.05666,0.02 -0.12123,-0.016 -0.179168,0 -0.18322,0.05 -0.354282,0.1443 -0.537504,0.1939 -0.05794,0.017 -0.12251,-0.02 -0.179167,0 -0.126692,0.045 -0.22878,0.1588 -0.358335,0.194 -0.115879,0.032 -0.23889,0 -0.358337,0 l -0.895839,0 -2.687518,0 -0.895837,0 c -0.119446,0 -0.240518,-0.02 -0.358337,0 -0.242892,0.043 -0.253822,0.4201 -0.694274,0.4364 l -0.201563,-1.7941 c 0,-0.1293 -0.03777,-0.2653 0,-0.3879 0.04223,-0.1371 0.136936,-0.2508 0.179167,-0.3878 0.05029,-0.1633 -0.05333,-0.8543 0,-0.9698 0.03777,-0.082 0.141395,-0.1122 0.179168,-0.194 0.106499,-0.2305 0.329633,-1.1712 0.358336,-1.3577 0.01964,-0.1274 -0.02342,-0.261 0,-0.3877 0.118844,-0.6434 0.167223,-0.4526 0.358335,-0.9699 0.07014,-0.1897 0.06586,-0.4182 0.179168,-0.5818 0.08013,-0.1156 0.284258,-0.074 0.358336,-0.1939 0.06626,-0.1077 -0.05341,-0.2723 0,-0.3879 0.02671,-0.058 0.125749,0.028 0.179167,0 0.07555,-0.041 0.119446,-0.1293 0.179168,-0.1941 0.119446,-0.1291 0.213488,-0.2936 0.358336,-0.3877 0.161945,-0.1054 0.375557,-0.088 0.537504,-0.194 0.144849,-0.094 0.238891,-0.2586 0.358334,-0.3878 0.05972,-0.065 0.10362,-0.1532 0.179168,-0.1941 0.618653,-0.3347 1.31544,-0.5392 1.970846,-0.7757 0.358337,-0.1294 0.721338,-0.2442 1.075008,-0.388 0.125041,-0.05 0.231646,-0.1482 0.358335,-0.1938 0.161252,-0.058 0.376253,0.058 0.537505,0 0.08013,-0.028 0.10362,-0.1532 0.179166,-0.194 0.05341,-0.028 0.119447,0 0.179169,0 l 0.358335,0 0.895839,0 0.17917,0 c 0.05972,0 0.136936,-0.045 0.179166,0 0.04223,0.045 -0.04223,0.1482 0,0.194 0.04223,0.045 0.136939,-0.045 0.179169,0 0.04223,0.045 -0.04223,0.1482 0,0.1938 8.76e-4,0 0.531513,0 0.537503,0 0.129557,0.035 0.228779,0.159 0.358335,0.1941 0.115879,0.032 0.242457,-0.032 0.358337,0 0.129555,0.035 0.226134,0.1734 0.358335,0.1939 0.295612,0.045 0.600228,-0.045 0.89584,0 0.264402,0.041 0.454769,0.3311 0.716672,0.3879 0.175687,0.039 0.363683,-0.046 0.537501,0 0.08194,0.023 0.119446,0.1292 0.179169,0.194 0.119444,0.065 0.228779,0.1588 0.358335,0.1938 0.08729,0.024 0.621933,-0.05 0.716671,0 0.745655,0.4036 -0.191536,-0.013 0.179169,0.388 0.04223,0.045 0.136937,-0.045 0.179168,0 0.08446,0.092 -0.05341,0.2721 0,0.3879 0.03777,0.082 0.141396,0.1122 0.179168,0.1939 0.02672,0.058 0.05972,0.1938 0,0.1938 -0.05973,0 0,-0.1291 0,-0.1938"
       inkscape:connector-curvature="0"
       sodipodi:nodetypes="cscssssscssscsccsccccccccccsccscccccccscsccscsccsssccsscsscsssssssccsssccsscscsccsccsccsssssccssssscsc" />
    <path
       style="fill:none;fill-rule:evenodd;stroke:#000000;stroke-width:0.564;stroke-linecap:butt;stroke-linejoin:miter;stroke-opacity:1;stroke-miterlimit:4;stroke-dasharray:none"
       d="m 14.493787,1036.4613 c 0,0 2.399112,-6.6731 9.596451,-8.7263 7.197338,-2.0533 7.197338,-2.0533 7.197338,-2.0533 l 0,0.3422"
       id="path4189"
       inkscape:connector-curvature="0" />
    <path
       style="fill:none;fill-rule:evenodd;stroke:#000000;stroke-width:0.14583844px;stroke-linecap:butt;stroke-linejoin:miter;stroke-opacity:1"
       d="m 22.635007,1033.0037 c -2.624142,-3.4569 -2.900367,-7.3856 -2.900367,-7.3856"
       id="path4195"
       inkscape:connector-curvature="0"
       sodipodi:nodetypes="cc" />
    <path
       style="fill:none;fill-rule:evenodd;stroke:#000000;stroke-width:0.12346587px;stroke-linecap:butt;stroke-linejoin:miter;stroke-opacity:1"
       d="m 26.049223,1031.2643 c -3.276195,-6.4094 -2.293337,-6.8366 -2.293337,-6.8366"
       id="path4197"
       inkscape:connector-curvature="0"
       sodipodi:nodetypes="cc" />
    <path
       style="fill:none;fill-rule:evenodd;stroke:#000000;stroke-width:0.12430772px;stroke-linecap:butt;stroke-linejoin:miter;stroke-opacity:1"
       d="m 28.558019,1028.9366 c -2.145536,-4.8505 -1.394599,-4.7035 -1.394599,-4.7035"
       id="path4199"
       inkscape:connector-curvature="0"
       sodipodi:nodetypes="cc" />
    <path
       style="fill:none;fill-rule:evenodd;stroke:#000000;stroke-width:0.10407252px;stroke-linecap:butt;stroke-linejoin:miter;stroke-opacity:1"
       d="m 19.257684,1033.5725 c -1.68657,-2.7392 -1.864102,-5.8519 -1.864102,-5.8519"
       id="path4195-6"
       inkscape:connector-curvature="0"
       sodipodi:nodetypes="cc" />
    <path
       id="path4238-6"
       style="fill:#339406;fill-opacity:1;fill-rule:evenodd;stroke:#000000;stroke-width:0.18811755px;stroke-linecap:butt;stroke-linejoin:miter;stroke-opacity:1"
       d="m 1.0574958,1032.2484 0,0.2372 c 0,0.079 -0.035869,0.1815 0,0.2374 0.035864,0.056 0.1163017,-0.056 0.1521693,0 0.076083,0.1187 -0.076085,0.5933 0,0.7119 0.2028902,0.3165 0.1460142,-0.5034 0.3043351,0.2372 0.032081,0.1501 -0.024604,0.3213 0,0.4747 0.2358952,1.4715 0.1248694,0.2372 0.1521677,0.2372 0.050724,0 -0.035869,0.1814 0,0.2374 0.035869,0.056 0.1163037,-0.056 0.1521703,0 0.035869,0.056 -0.035869,0.1814 0,0.2374 0.035869,0.056 0.1163012,-0.055 0.1521677,0 0.035864,0.056 -0.035869,0.1813 0,0.2373 0.035864,0.055 0.1163025,-0.057 0.1521679,0 0.3148414,0.491 -0.48112,-0.019 0.1521678,0.4745 0.045365,0.035 0.1068013,-0.035 0.1521691,0 0.064158,0.05 0.088009,0.1874 0.1521684,0.2374 0.090735,0.071 0.2326033,-0.1124 0.3043355,0 0.035869,0.056 -0.022687,0.1666 0,0.2372 0.032081,0.1005 0.1014464,0.1583 0.1521693,0.2375 0.050721,0.079 0.088007,0.1873 0.1521678,0.2373 0.045365,0.035 0.1014452,0 0.1521682,0 0,0.079 -0.035869,0.1813 0,0.2372 0.035869,0.056 0.1163025,-0.056 0.1521678,0 0.035869,0.056 -0.045365,0.2019 0,0.2373 0.090736,0.071 0.2136017,-0.07 0.3043376,0 0.045365,0.035 -0.035869,0.1814 0,0.2373 0.035864,0.057 0.1163025,-0.056 0.1521678,0 0.080201,0.1252 0.071969,0.3496 0.1521678,0.4746 0.035869,0.055 0.1294849,-0.071 0.1521693,0 0.045371,0.1415 -0.071733,0.3629 0,0.4747 0.071733,0.1123 0.2136005,-0.071 0.3043364,0 0.045365,0.035 -0.035869,0.1814 0,0.2373 0.035864,0.057 0.1163013,-0.056 0.1521673,0 0.314843,0.4909 -0.4811198,-0.02 0.1521698,0.4746 0.045365,0.035 0.1163001,-0.056 0.1521677,0 0.0802,0.1251 0.071968,0.3495 0.1521679,0.4745 0.035869,0.056 0.106799,-0.035 0.1521678,0 0.06416,0.05 0.08801,0.1875 0.1521692,0.2374 0.090734,0.071 0.2326038,-0.1124 0.3043366,0 0.035869,0.056 -0.035869,0.1813 0,0.2373 0.080201,0.125 0.2028902,0.1581 0.304337,0.2374 0.050721,0 0.1163001,-0.056 0.1521678,0 0.093214,0.1452 0.1295435,0.6209 0.3043361,0.7117 0.1369515,0.071 0.3195532,-0.071 0.4565053,0 0.1075994,0.056 0.1967371,0.1815 0.304337,0.2374 0.048121,0.026 0.1029607,-0.019 0.1521678,0 0.1556101,0.06 0.3008941,0.1767 0.4565053,0.2373 0.049208,0.02 0.1040478,-0.025 0.1521678,0 0.1075994,0.056 0.1943036,0.1943 0.3043361,0.2374 0.098417,0.038 0.2028907,0 0.304337,0 l 0.7608413,0 2.2825246,0 0.76084,0 c 0.101448,0 0.204273,-0.026 0.304338,0 0.20629,0.053 0.215571,0.5142 0.58965,0.5338 l 0.17119,-2.195 c 0,-0.1582 0.03208,-0.3246 0,-0.4747 -0.03587,-0.1678 -0.116298,-0.3067 -0.152168,-0.4745 -0.0427,-0.1999 0.0453,-1.0453 0,-1.1866 -0.03208,-0.1006 -0.120088,-0.1372 -0.152169,-0.2373 -0.09046,-0.2821 -0.279959,-1.433 -0.304336,-1.6611 -0.01668,-0.156 0.01989,-0.3194 0,-0.4746 -0.100933,-0.7871 -0.142024,-0.5537 -0.304336,-1.1866 -0.05958,-0.2321 -0.05593,-0.5117 -0.152169,-0.7119 -0.06805,-0.1414 -0.241422,-0.091 -0.304336,-0.2372 -0.05628,-0.1318 0.04537,-0.3332 0,-0.4747 -0.02268,-0.071 -0.106796,0.035 -0.152168,0 -0.06416,-0.05 -0.101448,-0.1581 -0.152168,-0.2374 -0.101448,-0.1581 -0.181317,-0.3593 -0.304338,-0.4745 -0.13754,-0.1288 -0.318962,-0.1088 -0.456505,-0.2372 -0.123021,-0.1148 -0.202891,-0.3165 -0.304336,-0.4747 -0.05072,-0.079 -0.08801,-0.1872 -0.152168,-0.2374 -0.525425,-0.4096 -1.1172104,-0.6597 -1.6738509,-0.9491 -0.3043375,-0.1584 -0.6126362,-0.2988 -0.9130105,-0.4747 -0.1061975,-0.062 -0.1967373,-0.1814 -0.3043357,-0.2372 -0.1369525,-0.071 -0.3195532,0.071 -0.4565057,0 -0.06805,-0.035 -0.088009,-0.1875 -0.1521673,-0.2374 -0.045365,-0.035 -0.1014464,0 -0.1521693,0 l -0.304336,0 -0.760841,0 -0.1521697,0 c -0.050721,0 -0.1163002,-0.055 -0.1521673,0 -0.035869,0.056 0.035869,0.1814 0,0.2374 -0.035869,0.056 -0.1163037,-0.056 -0.1521687,0 -0.035864,0.056 0.035864,0.1813 0,0.2372 -7.448e-4,0 -0.4514177,0 -0.4565049,0 -0.1100335,0.043 -0.1943031,0.1944 -0.3043361,0.2375 -0.098417,0.038 -0.20592,-0.039 -0.304337,0 -0.1100324,0.042 -0.1920572,0.2121 -0.304336,0.2372 -0.2510649,0.056 -0.5097776,-0.056 -0.7608424,0 -0.2245588,0.05 -0.3862381,0.4051 -0.6086732,0.4746 -0.1492123,0.047 -0.308879,-0.057 -0.4565037,0 -0.069591,0.028 -0.1014464,0.1582 -0.1521693,0.2373 -0.1014452,0.079 -0.1943031,0.1944 -0.3043355,0.2372 -0.074135,0.028 -0.5282114,-0.062 -0.6086732,0 -0.63328963,0.4939 0.1626732,-0.016 -0.1521693,0.4748 -0.035869,0.056 -0.1163016,-0.055 -0.15216824,0 -0.0717332,0.1112 0.0453657,0.3329 0,0.4745 -0.0320807,0.1005 -0.12008808,0.1373 -0.15216827,0.2373 -0.0226878,0.07 -0.0507225,0.2372 0,0.2372 0.0507234,0 0,-0.1581 0,-0.2372"
       inkscape:connector-curvature="0"
       sodipodi:nodetypes="cscssssscssscsccsccccccccccsccscccccccscsccscsccsssccsscsscsssssssccsssccsscscsccsccsccsssssccssssscsc" />
    <path
       style="fill:none;fill-rule:evenodd;stroke:#000000;stroke-width:0.66;stroke-linecap:butt;stroke-linejoin:miter;stroke-opacity:1;stroke-miterlimit:4;stroke-dasharray:none"
       d="m 14.74586,1044.5468 c 0,0 -1.950486,-7.8261 -7.8019461,-10.2341 -5.8514595,-2.408 -5.8514595,-2.408 -5.8514595,-2.408 l 0,0.4013"
       id="path4189-0"
       inkscape:connector-curvature="0" />
    <path
       style="fill:none;fill-rule:evenodd;stroke:#000000;stroke-width:0.14866754px;stroke-linecap:butt;stroke-linejoin:miter;stroke-opacity:1"
       d="m 8.4634682,1040.9853 c 2.2286998,-4.2298 2.4632988,-9.0367 2.4632988,-9.0367"
       id="path4195-9"
       inkscape:connector-curvature="0"
       sodipodi:nodetypes="cc" />
    <path
       style="fill:none;fill-rule:evenodd;stroke:#000000;stroke-width:0.12586094px;stroke-linecap:butt;stroke-linejoin:miter;stroke-opacity:1"
       d="m 5.5637548,1038.8572 c 2.7824919,-7.8423 1.9477447,-8.3651 1.9477447,-8.3651"
       id="path4197-4"
       inkscape:connector-curvature="0"
       sodipodi:nodetypes="cc" />
    <path
       style="fill:none;fill-rule:evenodd;stroke:#000000;stroke-width:0.12671913px;stroke-linecap:butt;stroke-linejoin:miter;stroke-opacity:1"
       d="m 3.4330202,1036.009 c 1.8222155,-5.9349 1.1844404,-5.7549 1.1844404,-5.7549"
       id="path4199-9"
       inkscape:connector-curvature="0"
       sodipodi:nodetypes="cc" />
    <path
       style="fill:none;fill-rule:evenodd;stroke:#000000;stroke-width:0.1060914px;stroke-linecap:butt;stroke-linejoin:miter;stroke-opacity:1"
       d="m 11.331849,1041.6812 c 1.432414,-3.3515 1.583192,-7.1601 1.583192,-7.1601"
       id="path4195-6-4"
       inkscape:connector-curvature="0"
       sodipodi:nodetypes="cc" />
    <path
       style="fill:none;fill-rule:evenodd;stroke:#000000;stroke-width:1;stroke-linecap:butt;stroke-linejoin:miter;stroke-miterlimit:4;stroke-dasharray:none;stroke-opacity:1"
       d="m 14.394674,1051.6046 0.757614,-8.8389 -1.010152,-12.6269 0.252538,-10.1015"
       id="path5527"
       inkscape:connector-curvature="0"
       sodipodi:nodetypes="cccc" />
  </g>
</svg>
